<?xml version="1.0" encoding="UTF-8"?><svg id="Layer_1" xmlns="http://www.w3.org/2000/svg" viewBox="0 0 1395.58 161.01"><defs><style>.cls-1{fill:#30c38c;stroke-width:0px;}</style></defs><path class="cls-1" d="M1266.48,58.84c-.18-8.05-.04-16.1-.04-24.15,0-8.3-.19-16.6.06-24.88.23-7.72-5.23-6-9.62-6.2-4.55-.2-8.9-.57-8.81,6.3.23,16.34.14,32.69.04,49.04-.04,6.98,4.92,6.09,9.21,6.01,4.22-.08,9.31.94,9.15-6.12Z"/><path class="cls-1" d="M171.78,20.64c-.1-12.7-4.18-16.81-16.7-17.01-8.34-.13-16.7.37-25.01-.13-11.01-.66-17.98,4.13-22.7,13.83-6.1,12.52-12.84,24.73-19.73,37.89-8.88-14.06-17.71-27.25-25.67-40.95-4.64-7.99-10.58-11.4-19.76-10.8-8.55.57-17.16.1-25.75.13C2.82,3.64,0,6.43,0,19.83,0,60.75,0,101.66,0,142.58q0,14.45,14.76,14.2c.49,0,.98-.03,1.47,0,5.28.33,6.87-2.61,6.62-7.33-.63-12.23-1.31-24.45-1.75-36.69-.24-6.57-1.13-13.2.19-21,8.56,14.7,16.38,28.27,24.35,41.75,7.09,11.98,15.51,11.85,22.29-.37,7.46-13.44,14.74-26.98,22.1-40.48.57.11,1.14.21,1.7.32,0,15.85-.15,31.7.05,47.55.16,12.45,3.99,16.12,16.51,16.21,14.96.11,29.93.05,44.89.02,15.31-.03,18.54-3.17,18.6-18.52.09-24.25.03-48.51.03-72.76,0-14.94.09-29.89-.03-44.83ZM80.01,69.65c-1.51,2.43-2.67,2.55-4.17.17-11.84-18.78-23.68-37.57-35.69-56.62,5.87-1.77,9.45-.07,12.3,4.52,9.15,14.75,18.41,29.45,27.87,44,2,3.07,1.37,5.23-.31,7.93ZM162.36,80.62c0,18.87.01,37.74,0,56.61,0,2.2-.03,4.42-.27,6.6-.33,3.06-2.41,4.02-5.22,3.83-3.04-.21-2.43-2.59-2.46-4.41-.09-4.9-.03-9.8-.03-14.7,0-36.02-.07-72.04.14-108.06.02-2.62-2.88-7.75,3.24-7.69,5.6.05,4.55,4.82,4.56,8.28.09,19.85.04,39.7.04,59.55Z"/><path class="cls-1" d="M482.09,3.75c-8.33-.31-16.72.39-25.01-.26-12.7-1-20.78,4.01-26.04,15.68-5.38,11.93-12.06,23.27-18.61,35.69-1.87-2.65-3.17-4.34-4.3-6.13-7.59-12-15.31-23.93-22.63-36.09-3.8-6.31-8.75-9.38-16.23-9.11-9.31.34-18.64.06-27.96.08-13.97.03-16.42,2.42-16.42,16.07-.01,41.89,0,83.79,0,125.68,0,1.96.07,3.92.14,5.88.12,3.52,1.87,5.46,5.47,5.49,18.88.19,17.38,1.51,16.76-15.22-.11-2.94-.55-5.86-.56-8.8-.06-13.43-.03-26.86-.03-39.73,7.35,12.65,15.17,26.18,23.06,39.67,2.74,4.68,5.47,9.62,11.96,9.48,6.51-.14,8.93-5.27,11.52-10.01,7.37-13.48,14.7-26.98,22.75-41.77.49,1.93.59,2.16.59,2.38.03,16.17,0,32.34.1,48.5.07,11.64,3.72,15.37,15.5,15.49,16.19.16,32.38.17,48.57,0,11.93-.13,15.46-3.7,15.48-15.41.06-40.91.06-81.83,0-122.74-.01-9.97-4.23-14.46-14.12-14.82ZM402.18,72.39c-12.29-19.47-24.67-39.07-37.41-59.26,6.49-1.67,9.82.45,12.63,5.04,8.42,13.76,17.07,27.39,25.91,40.88,3.03,4.62,4.58,8.68-1.12,13.34ZM487.26,141.83c-.18,3.26-1.33,5.81-5.12,5.85-5.11.05-3.35-3.95-3.37-6.41-.13-20.3-.07-40.6-.07-60.89,0-20.3-.08-40.6.11-60.89.02-2.34-2.19-6.46,2.79-6.8,5.25-.36,5.71,3.36,5.71,7.36-.03,21.28-.01,42.55-.01,63.83,0,17.85,0,35.71,0,53.56,0,1.47.04,2.94-.04,4.4Z"/><path class="cls-1" d="M1214.38,3.6c-.98,0-1.97.09-2.94-.01-5.55-.62-7.27,2.02-7.15,7.31.26,11.51.08,23.03.07,34.55-.01,22.54.22,45.09-.16,67.62-.17,9.85-1.39,19.72-11.38,25.52-4.88,2.84-6.73,2.15-6.64-3.95.26-19.11.1-38.22.1-57.33h-.04c0-19.11.2-38.23-.07-57.33-.18-12.52-4.13-16.27-16.39-16.34-16.19-.1-32.38-.16-48.57.12-10.85.18-14.78,3.52-14.78,13.91,0,32.57-1.53,65.19.95,97.71,1.83,23.98,15.36,39.02,38.58,43.75,14.36,2.93,28.97,2.38,43.04-1.28,16.21-4.21,27.44-14.56,32.4-31.04,2.71-9,3.66-18.19,3.66-27.55-.03-28.42-.01-56.84-.02-85.27q0-10.41-10.66-10.4ZM1176.88,109.01c0,9.31-.03,18.63.02,27.94.02,2.88.06,5.21-4.07,5.21-4.21,0-3.99-2.45-3.98-5.26.02-20.1.01-40.19.01-60.29,0-18.38-.17-36.76.18-55.14.06-2.85-3.28-8.41,2.95-8.62,6.6-.21,4.79,5.65,4.81,9.4.13,28.92.07,57.84.07,86.76Z"/><path class="cls-1" d="M960.09,13.25q0-9.64-9.89-9.65c-.98,0-1.98.11-2.94-.02-6.25-.8-8.42,2.15-7.9,8.09.3,3.4.06,6.86.05,10.29-.01,30.38.15,60.76-.13,91.14-.09,9.89-1.35,19.69-11.35,25.51-4.92,2.86-6.69,2.17-6.61-3.9.25-19.35.09-38.71.09-58.07h-.03c0-19.36.13-38.71-.06-58.07-.09-9.66-4.18-14.6-12.67-14.74-18.15-.3-36.31-.32-54.45.07-8.87.19-12.36,4-12.37,13.02-.04,32.09-.4,64.2.54,96.28.74,25.45,16.03,42.15,40.17,46.31,12.47,2.15,25.03,1.63,37.33-.67,18.93-3.54,31.68-14.62,37.11-33.45,2.46-8.55,3.14-17.29,3.13-26.14-.06-28.67-.02-57.33-.03-86ZM908.36,142.14c-6.72.2-4.31-4.67-4.34-7.66-.18-19.11-.09-38.22-.09-57.33,0-19.6-.05-39.2.08-58.8.01-2.01-1.67-5.33,2.43-5.69,3.65-.32,5.43,1.65,5.63,5.19.12,2.2.31,4.4.31,6.6.02,36.75.06,73.5-.07,110.25-.01,2.82,2.18,7.26-3.94,7.45Z"/><path class="cls-1" d="M1088.44,138.24c-7.76,1.04-15.61,1.58-23.29,3.03-4.43.84-5.93-.19-5.51-4.52.14-1.46.02-2.94.02-4.41,0-37.22.06-74.44-.06-111.66-.04-13.24-3.96-16.98-17.19-17.06-14.46-.09-28.93-.07-43.4,0-16.47.07-19.36,2.95-19.38,19.18-.02,18.86,0,37.71,0,56.57,0,19.59-.06,39.18.02,58.77.06,15.3,3.35,18.59,18.56,18.63,27.95.06,55.9.02,83.85.01,11.63,0,13.02-1.68,12.29-13.34-.26-4.12-1.82-5.74-5.93-5.19ZM1048.71,143.18c-1.48.7-3.49,1.16-4.98.74-2.54-.71-1.43-3.27-1.43-5-.08-20.3-.05-40.59-.05-60.89,0-19.32-.11-38.64.14-57.95.03-2.47-2.68-7.12,2.89-7.33,5.58-.21,4.97,4.31,4.97,7.9.05,22.01.03,44.01.03,66.02,0,16.87.04,33.74-.05,50.62,0,2.03,1.04,4.68-1.52,5.89Z"/><path class="cls-1" d="M1390.54,4.32c-12.74-2.74-25.66-4-38.72-4.32-6.36.33-12.76.28-19.07,1.05-22.04,2.66-36.93,17.26-39.61,38.93-1.38,11.17-2.17,22.42-3.29,33.63-1.5,15.11-2.8,30.24-4.65,45.3-1.77,14.48-7.19,20.39-20.92,23.34-5.37,1.15-3.86,5.68-4.83,8.77-1.09,3.47,2.39,3.7,4.65,4.12,18.07,3.33,36.03,6.51,54.69,4.94,29.07-2.45,47.27-20.45,49.19-49.41,1.64-24.68,3.83-49.32,6.06-73.95,1.14-12.63,4.89-17.14,16.46-19.95,5.29-1.28,4.07-5.57,4.91-8.71,1.04-3.88-2.86-3.3-4.87-3.73ZM1373.91,17.15c-7.56,7.05-8.68,17.32-9.02,21.75-1.93,24.9-3.88,49.8-6.12,74.68-1.53,17.04-12.13,30.69-25.55,33.72-.07-.21-.26-.55-.2-.61,17.16-14.96,17.48-35.49,18.81-55.82,1.18-18.08,2.82-36.13,4.54-54.17.31-3.21.87-11.28,6.81-16.73,3.06-2.81,6.55-4.02,9-4.6,1.6-.21,3.19-.43,4.79-.64-.75.5-1.86,1.3-3.07,2.42Z"/><path class="cls-1" d="M821.56,138.68c-7.27.98-14.65,1.35-21.85,2.71-4.43.83-5.08-.8-4.89-4.43.17-3.17.04-6.36.04-9.55,0-35.74.05-71.49-.05-107.23-.04-12.32-4.14-16.45-16.25-16.54-16.18-.11-32.36-.17-48.53.09-11.5.19-14.8,3.67-14.86,15.17-.11,20.32-.03,40.64-.03,60.96h.06c0,21.05-.14,42.11.06,63.16.09,9.42,3.35,12.58,12.75,13.57,1.7.18,3.43.17,5.14.17,28.43,0,56.87.01,85.3,0,1.95,0,4.02.16,5.84-.38,8.04-2.39,4.92-9.14,4.91-14.22-.01-5.31-4.18-3.94-7.64-3.48ZM785.79,133.92c0,1.96-.1,3.92-.03,5.88.14,4.09-3,3.75-5.56,4.19-4.15.72-2.79-2.53-2.8-4.29-.1-20.34-.06-40.68-.06-61.02,0-19.85-.08-39.7.11-59.55.02-2.29-2.27-6.47,3.06-6.48,4.41,0,4.96,3.26,5.19,6.58.15,2.2.08,4.41.08,6.61,0,36.02,0,72.05,0,108.07Z"/><path class="cls-1" d="M266.76,21.3c-8.07-21.66-6.48-17.07-26.06-17.76-6.13-.21-9.55,2.5-11.4,8.12-15.24,46.18-30.55,92.35-45.86,138.51-.62,1.88-1.46,3.73.22,5.46,2.82,2.89,17.95,1.19,18.54-2.49,1.15-7.09,5.74-6.59,10.74-6.47,5.64.13,11.28.09,16.92,0,2.36-.04,4.32.21,5.26,2.84,2.21,6.19,7.36,7.25,13.05,7.26,9.07,0,18.14,0,27.21,0,8.34,0,16.67,0,25.01,0,13.26,0,15.81-3.58,11.16-16-14.91-39.83-29.94-79.61-44.79-119.47ZM226.55,133.46c-6.07-.06-12.14-.02-18.95-.02,3.64-13.64,7.07-26.51,11.08-41.53,4.01,14.03,7.47,26.04,10.88,38.06.73,2.57-.51,3.52-3.01,3.49ZM301.32,147.51c-2.12.27-4.53.95-6.08-1.25-.82-1.17-1.27-2.63-1.79-4-15.37-41.2-30.75-82.4-45.97-123.66-.64-1.73-3.96-4.56.13-5.9,2.76-.9,5.94-.31,7.29,3.21,2.37,6.15,4.78,12.29,7.1,18.47,13.25,35.21,26.47,70.43,39.7,105.65.52,1.37.99,2.76,1.43,4.01.32,1.76.05,3.23-1.83,3.47Z"/><path class="cls-1" d="M635.97,140.07c-14.82-39.62-29.53-79.28-44.51-118.84-8.02-21.17-5.54-17.09-26.13-17.7-6.2-.18-9.67,2.69-11.48,8.15-15.22,45.95-30.43,91.91-45.59,137.88-.66,2.01-1.74,4.24.23,6.21,2.51,2.51,17.65,1.11,18.17-2.06,1.34-8.13,6.93-7.15,12.51-7.03,5.15.11,10.3.04,15.45.02,2.26,0,4.18,0,5.17,2.84,2,5.75,6.87,7.19,12.36,7.22,9.32.04,18.64.01,27.96.01,9.81,0,19.62.12,29.43-.04,7.17-.12,10.07-4.14,8.29-11.09-.48-1.89-1.17-3.73-1.85-5.56ZM552.08,133.44c-.24,0-.49-.01-.73.01-19.02,2.21-19.58,1.58-14.7-16.53,1.95-7.22,3.91-14.44,5.86-21.66.61-.02,1.23-.05,1.84-.07,3.31,11.68,6.58,23.38,9.96,35.04.65,2.25.08,3.22-2.23,3.21ZM626.04,147.44c-3.76,1.41-6.16-.31-7.64-4.38-9.15-25.04-18.56-49.98-27.88-74.96-6.82-18.27-13.62-36.55-20.47-54.92,6.26-1.96,9,.64,10.94,5.85,15.1,40.57,30.41,81.07,45.54,121.64.79,2.13,3.63,5.24-.49,6.78Z"/></svg>